<?xml version="1.0" standalone="no"?>
<!DOCTYPE svg PUBLIC "-//W3C//DTD SVG 20010904//EN"
 "http://www.w3.org/TR/2001/REC-SVG-20010904/DTD/svg10.dtd">
<svg version="1.0" xmlns="http://www.w3.org/2000/svg"
 width="864.000000pt" height="864.000000pt" viewBox="0 0 864.000000 864.000000"
 preserveAspectRatio="xMidYMid meet">
<metadata>
Created by potrace 1.11, written by Peter Selinger 2001-2013
</metadata>
<g transform="translate(0.000000,864.000000) scale(0.100000,-0.100000)"
fill="#000000" stroke="none">
<path d="M4220 7814 c-47 -7 -101 -15 -120 -18 -50 -8 -259 -62 -295 -77 -16
-7 -32 -13 -35 -14 -61 -15 -122 -41 -260 -110 -148 -74 -174 -88 -183 -102
-4 -7 -12 -13 -18 -13 -9 0 -89 -49 -99 -61 -3 -3 -26 -20 -52 -37 -25 -18
-52 -38 -60 -45 -7 -6 -38 -32 -68 -57 -76 -61 -280 -265 -280 -279 0 -6 -4
-11 -8 -11 -4 0 -35 -34 -67 -76 -33 -42 -66 -83 -72 -90 -7 -7 -13 -17 -13
-23 0 -5 -6 -14 -13 -18 -8 -4 -24 -27 -37 -50 -13 -24 -27 -43 -32 -43 -4 0
-8 -4 -8 -9 0 -5 -23 -46 -50 -90 -46 -75 -177 -332 -171 -339 1 -1 -5 -15
-14 -30 -16 -28 -76 -185 -93 -243 -6 -19 -20 -65 -32 -104 -12 -38 -23 -79
-25 -90 -3 -11 -7 -29 -10 -40 -10 -41 -33 -151 -39 -180 -2 -16 -7 -39 -9
-50 -3 -11 -8 -45 -11 -76 -4 -31 -8 -65 -10 -75 -31 -168 -27 -681 7 -879 3
-16 11 -64 18 -105 7 -41 13 -77 14 -80 1 -3 7 -32 14 -65 7 -33 16 -73 21
-90 5 -16 11 -41 14 -55 2 -14 11 -44 20 -68 8 -23 16 -46 17 -50 4 -17 9 -33
50 -147 23 -66 46 -126 52 -132 5 -7 6 -13 2 -13 -5 0 -1 -8 9 -19 9 -10 18
-28 21 -40 7 -40 175 -351 201 -372 8 -6 14 -16 14 -21 0 -8 81 -127 117 -173
131 -166 269 -311 394 -416 125 -105 129 -109 134 -109 3 0 11 -4 18 -10 57
-47 76 -60 86 -60 6 0 11 -4 11 -10 0 -5 6 -10 13 -10 7 0 23 -9 35 -20 12
-12 22 -18 22 -15 0 4 12 -2 28 -13 136 -95 464 -225 662 -263 25 -4 56 -10
70 -13 199 -37 548 -43 706 -12 12 2 37 7 55 10 126 20 281 65 434 126 120 48
288 132 313 157 8 7 17 11 22 8 5 -3 10 -2 12 2 3 8 114 84 133 92 5 2 15 9
21 15 6 6 46 38 88 71 42 32 76 63 76 67 0 4 5 8 11 8 10 0 249 233 249 243 0
3 14 21 31 39 99 107 349 484 349 526 0 7 5 12 10 12 6 0 10 5 10 11 0 7 20
53 44 103 24 50 49 109 57 131 8 22 16 42 19 45 6 5 89 252 95 280 2 8 11 44
20 80 9 36 18 72 20 80 23 106 36 167 39 193 2 18 7 48 10 67 24 143 31 260
31 490 -1 194 -7 331 -20 400 -2 14 -7 45 -9 70 -3 25 -7 55 -10 66 -2 12 -7
38 -10 58 -3 19 -11 57 -17 83 -6 27 -13 57 -15 68 -2 11 -6 29 -8 40 -2 11
-16 61 -31 110 -14 50 -28 95 -29 100 -4 13 -6 20 -56 155 -45 124 -217 480
-231 480 -5 0 -9 4 -9 10 0 13 -70 123 -84 132 -6 4 -8 8 -4 8 4 0 1 8 -7 18
-7 9 -35 46 -62 82 -26 36 -52 70 -58 76 -5 6 -26 30 -45 54 -19 24 -51 59
-70 79 -19 19 -45 49 -57 65 -13 17 -23 27 -23 24 0 -4 -24 17 -53 45 -29 29
-79 75 -112 102 -33 28 -61 53 -63 58 -2 4 -8 7 -14 7 -5 0 -15 6 -23 13 -32
30 -54 45 -59 40 -3 -4 -6 -2 -6 4 0 5 -16 18 -35 29 -19 10 -35 22 -35 26 0
5 -5 8 -11 8 -6 0 -29 13 -52 29 -51 34 -215 120 -277 145 -25 10 -58 24 -75
31 -85 38 -304 102 -410 119 -16 3 -41 7 -55 10 -71 14 -132 18 -315 20 -121
1 -233 -3 -285 -10z"/>
</g>
</svg>
